<svg xmlns="http://www.w3.org/2000/svg" height="29" width="143"><title>Logo Standard</title><g fill-rule="evenodd" fill="none"><path fill-rule="nonzero" fill="#37474F" d="M69.814 22.458l-1.615-4.012h-8.637l-1.614 4.012h-1.615L63.01 6.139h1.737l6.677 16.319h-1.61zM63.891 7.63l-3.863 9.54h7.706l-3.843-9.54zm17.756 14.828v-1.875a5.033 5.033 0 0 1-4.109 2.167c-3.131 0-5.262-2.398-5.262-6.189 0-3.792 2.127-6.215 5.262-6.215a4.979 4.979 0 0 1 4.109 2.203v-6.41h1.297v16.319h-1.297zm0-2.962V13.65a4.719 4.719 0 0 0-3.889-2.167c-2.618 0-4.135 2.203-4.135 5.056s1.517 5.055 4.135 5.055a4.74 4.74 0 0 0 3.889-2.094v-.004z"/><path fill="#37474F" d="M98.944 22.458v-7.757H88.595v7.757h-1.394V6.138h1.394v7.292h10.349V6.139h1.396v16.319z"/><path fill-rule="nonzero" fill="#37474F" d="M110.67 22.458v-1.394a5.142 5.142 0 0 1-4.01 1.686c-2.03 0-4.14-1.394-4.14-3.94s2.08-3.914 4.14-3.914a5.109 5.109 0 0 1 4.01 1.686v-2.394c0-1.762-1.42-2.716-3.16-2.716a4.62 4.62 0 0 0-3.72 1.737l-.72-.881a5.741 5.741 0 0 1 4.55-1.982c2.4 0 4.31 1.148 4.31 3.792v8.305l-1.26.015zm0-2.326v-2.593a4.367 4.367 0 0 0-3.58-1.65c-1.93 0-3.22 1.246-3.22 2.936s1.29 2.91 3.22 2.91c1.38.053 2.7-.54 3.58-1.603z"/><path fill="#37474F" d="M125.82 22.458l-3.31-10.112-3.32 10.112h-1.23l-3.85-11.816h1.37l3.13 10.032 3.33-10.032h1.08l3.37 10.028 3.13-10.032h1.37l-3.84 11.816zm15.44 0l-4.72-5.627-2.21 2.077v3.546h-1.27V6.139h1.27V17.39l6.95-6.753H143l-5.5 5.334 5.48 6.5z"/><path fill="#1CCB8D" d="M50.194 0H1.083a.722.722 0 0 0-.498 1.246l5.742 5.47a.722.722 0 0 1 .151.835 10.067 10.067 0 0 0-1.061 4.77c.144 5.518 4.81 9.851 10.327 9.851H20.9c.258 0 .496.138.625.361l3.488 5.995a.721.721 0 0 0 1.25 0l3.492-5.998a.719.719 0 0 1 .624-.361h5.153c5.518 0 10.184-4.334 10.325-9.848a10.073 10.073 0 0 0-1.06-4.77.722.722 0 0 1 .153-.834l5.742-5.471a.722.722 0 0 0-.5-1.246z"/><path fill="#fff" d="M25.299 11.754l-2.311 6.302a.364.364 0 0 0 .022.299l2.311 4.193a.362.362 0 0 0 .632 0l2.311-4.193a.36.36 0 0 0 .022-.299l-2.311-6.291a.363.363 0 0 0-.334-.239.364.364 0 0 0-.342.228zm-13.863-.888c0 .115.026.318.055.516.27 1.806 1.245 3.055 2.888 3.633s3.131.181 4.41-1.058c.133-.13.151-.209 0-.361a29.352 29.352 0 0 1-1.214-1.13c-.133-.13-.213-.156-.361 0a2.12 2.12 0 0 1-2.928 0 2.354 2.354 0 0 1-.3-3.016c.108-.148.119-.23-.025-.36a27.45 27.45 0 0 1-1.214-1.131c-.169-.17-.249-.12-.361.047a4.794 4.794 0 0 0-.95 2.86zm28.413-.206a4.613 4.613 0 0 0-.936-2.661c-.122-.163-.202-.185-.361-.033a34.89 34.89 0 0 1-1.21 1.13c-.14.123-.148.203-.036.361.391.534.524 1.215.362 1.857a2.148 2.148 0 0 1-3.565 1.177c-.162-.148-.242-.148-.39 0-.361.361-.765.722-1.166 1.083-.184.159-.173.249 0 .415a4.2 4.2 0 0 0 4.694.921 4.547 4.547 0 0 0 2.608-4.25z"/></g></svg>